<svg fill="none" height="24" viewBox="0 0 24 24" width="24" xmlns="http://www.w3.org/2000/svg"><g fill="#2d264b"><path d="m5.06107 21.0451.44084-.6068zm-1.10616-1.1062.60677-.4408zm16.09019 0-.6068-.4408zm-1.1062 1.1062.4409.6067zm0-16.09018.4409-.60677zm1.1062 1.10615-.6068.44084zm-14.98403-1.10615.44084.60676zm-1.10616 1.10615.60677.44084zm15.26289 10.00053-.1173-.7408zm-4.1562 4.1562-.7408-.1173zm-.8116-15.2178c0 .41421.3358.75.75.75s.75-.33579.75-.75zm1.5-3c0-.41421-.3358-.75-.75-.75s-.75.33579-.75.75zm-7.5 3c0 .41421.33579.75.75.75s.75-.33579.75-.75zm1.5-3c0-.41421-.33579-.75-.75-.75s-.75.33579-.75.75zm11.2211 14 .7495.0257zm-5.9711 5.9711.0257.7495zm-3-.7211c-1.8916 0-3.25001-.001-4.30196-.115-1.03791-.1125-1.68812-.3276-2.19613-.6967l-.88168 1.2135c.80633.5859 1.75071.8482 2.91625.9745 1.1515.1247 2.60532.1237 4.46352.1237zm-9.75-8.25c0 1.8582-.00103 3.312.12373 4.4635.12628 1.1656.38859 2.1099.97442 2.9163l1.21353-.8817c-.36909-.508-.58423-1.1582-.69668-2.1961-.11397-1.052-.115-2.4104-.115-4.302zm3.25191 7.4383c-.3608-.2621-.67809-.5794-.94023-.9402l-1.21353.8817c.35466.4881.78394.9174 1.27208 1.272zm13.93639-.9402c-.2621.3608-.5794.6781-.9402.9402l.8817 1.2135c.4881-.3546.9174-.7839 1.272-1.272zm2.3117-6.4981c0-1.8582.001-3.31202-.1237-4.46352-.1263-1.16554-.3886-2.10992-.9745-2.91625l-1.2135.88168c.3691.50801.5842 1.15822.6967 2.19613.114 1.05195.115 2.41036.115 4.30196zm-3.2519-7.43832c.3608.26214.6781.57943.9402.94023l1.2135-.88168c-.3546-.48814-.7839-.91742-1.272-1.27208zm-14.7481 7.43832c0-1.8916.00103-3.25001.115-4.30196.11245-1.03791.32759-1.68812.69668-2.19613l-1.21353-.88168c-.58583.80633-.84814 1.75071-.97442 2.91625-.12476 1.1515-.12373 2.60532-.12373 4.46352zm.87023-8.65185c-.48814.35466-.91742.78394-1.27208 1.27208l1.21353.88168c.26214-.3608.57943-.67809.94023-.94023zm14.48027 10.97265c-2.4604.3897-4.39 2.3193-4.7797 4.7797l1.4815.2347c.2881-1.8186 1.7143-3.2448 3.5329-3.5329zm-9.3505-10.3208v-.97107h-1.5v.97107zm0-.97107v-2.02893h-1.5v2.02893zm2.25-.77893c-1.1648 0-2.16576-.00009-3.02568.02937l.05136 1.49912c.82877-.0284 1.80122-.02849 2.97432-.02849zm-3.02568.02937c-1.87345.06419-3.25042.26693-4.35409 1.06878l.88168 1.21353c.70555-.51261 1.66884-.71964 3.52377-.78319zm6.77568 1.72063v-.97107h-1.5v.97107zm0-.97107v-2.02893h-1.5v2.02893zm-3.75.72107c1.1731 0 2.1456.00009 2.9743.02849l.0514-1.49912c-.8599-.02946-1.8609-.02937-3.0257-.02937zm2.9743.02849c1.8549.06355 2.8182.27058 3.5238.78319l.8817-1.21353c-1.1037-.80185-2.4807-1.00459-4.3541-1.06878zm5.9968 10.47151c-.8823 0-1.4132-.0016-1.8706.0708l.2347 1.4815c.3118-.0494.6986-.0523 1.6359-.0523zm-.7211-2.25c0 1.1731-.0001 2.1456-.0285 2.9743l1.4991.0514c.0295-.8599.0294-1.8609.0294-3.0257zm-.0285 2.9743c-.0635 1.8549-.2706 2.8182-.7832 3.5238l1.2135.8817c.8019-1.1037 1.0046-2.4807 1.0688-4.3541zm-4.4715 5.9968c0-.9373.0029-1.3241.0523-1.6359l-1.4815-.2347c-.0724.4574-.0708.9883-.0708 1.8706zm-3.75.7789c1.1648 0 2.1658.0001 3.0257-.0294l-.0514-1.4991c-.8287.0284-1.8012.0285-2.9743.0285zm3.0257-.0294c1.8734-.0642 3.2504-.2669 4.3541-1.0688l-.8817-1.2135c-.7056.5126-1.6689.7197-3.5238.7832z"/><path d="m8 9c0 .55228-.44772 1-1 1s-1-.44772-1-1 .44772-1 1-1 1 .44772 1 1z"/><path d="m8 13c0 .5523-.44772 1-1 1s-1-.4477-1-1 .44772-1 1-1 1 .4477 1 1z"/><path d="m13 9c0 .55228-.4477 1-1 1s-1-.44772-1-1 .4477-1 1-1 1 .44772 1 1z"/><path d="m13 13c0 .5523-.4477 1-1 1s-1-.4477-1-1 .4477-1 1-1 1 .4477 1 1z"/><path d="m13 17c0 .5523-.4477 1-1 1s-1-.4477-1-1 .4477-1 1-1 1 .4477 1 1z"/><path d="m18 9c0 .55228-.4477 1-1 1s-1-.44772-1-1 .4477-1 1-1 1 .44772 1 1z"/><path d="m18 13c0 .5523-.4477 1-1 1s-1-.4477-1-1 .4477-1 1-1 1 .4477 1 1z"/><path d="m8 17c0 .5523-.44772 1-1 1s-1-.4477-1-1 .44772-1 1-1 1 .4477 1 1z"/></g></svg>