<svg fill="none" height="24" viewBox="0 0 24 24" width="24" xmlns="http://www.w3.org/2000/svg"><g fill="#292d32"><path d="m8.09 11.6314h-4.69c.08-4.66996 1-5.43996 3.87-7.13996.33-.2.44-.62.24-.96-.19-.33-.62-.44-.95-.24-3.38 2-4.56 3.22-4.56 9.02996v5.39c0 1.71 1.39 3.09 3.09 3.09h3c1.76 0 3.09-1.33 3.09-3.09v-3c0-1.75-1.33-3.08-3.09-3.08z"/><path d="m18.9086 11.6314h-4.69c.08-4.66996 1-5.43996 3.87-7.13996.33-.2.44-.62.24-.96-.2-.33-.62-.44-.96-.24-3.38 2-4.56 3.22-4.56 9.03996v5.39c0 1.71 1.39 3.09 3.09 3.09h3c1.76 0 3.09-1.33 3.09-3.09v-3c.01-1.76-1.32-3.09-3.08-3.09z"/></g></svg>