<svg height="16" viewBox="0 0 16 16" width="16" xmlns="http://www.w3.org/2000/svg"><path d="m11 14v2h-10.93810625c-.04085042-.3275942-.06189375-.6613397-.06189375-1 0-3.6419883 2.43367678-6.715561 5.76349486-7.68318251-1.06396919-.71883476-1.76349486-1.93613464-1.76349486-3.31681749 0-2.209139 1.790861-4 4-4s4 1.790861 4 4c0 .40908829-.0614115.80383315-.1755185 1.17551851-1.6354721.50208809-2.8244815 2.02443078-2.8244815 3.82448149 0 .02776714.00028293.0554682.00084606.08310044-.3254751-.05465237-.65983838-.08310044-1.00084606-.08310044-2.97299629 0-5.44096347 2.1622867-5.91704156 5zm-3-8c1.1045695 0 2-.8954305 2-2s-.8954305-2-2-2-2 .8954305-2 2 .8954305 2 2 2zm4 10v-4.1707057c-1.1651924-.4118364-2-1.5230755-2-2.8292943 0-1.65685425 1.3431458-3 3-3s3 1.34314575 3 3c0 1.3062188-.8348076 2.4174579-2 2.8292943v1.1707057h2v1h-2v1h2v1zm1-6c.5522847 0 1-.44771525 1-1s-.4477153-1-1-1-1 .44771525-1 1 .4477153 1 1 1z" fill="#293040"/></svg>